<?xml version="1.0" encoding="utf-8"?>
<svg version="1.1" xmlns:xlink="http://www.w3.org/1999/xlink" width="12px" height="12px" viewBox="264 163.5  12 12" xmlns="http://www.w3.org/2000/svg">
  <path d="M 270 163.5  C 273.36 163.5  276 166.14  276 169.5  C 276 172.86  273.36 175.5  270 175.5  C 266.64 175.5  264 172.86  264 169.5  C 264 166.14  266.64 163.5  270 163.5  Z " fill-rule="nonzero" fill="#ffffff" stroke="none" />
  <path d="M 270 164  C 273.08 164  275.5 166.42  275.5 169.5  C 275.5 172.58  273.08 175  270 175  C 266.92 175  264.5 172.58  264.5 169.5  C 264.5 166.42  266.92 164  270 164  Z " stroke-width="1" stroke="#797979" fill="none" />
  <path d="M 270 172.5  C 268.32 172.5  267 171.18  267 169.5  C 267 167.82  268.32 166.5  270 166.5  C 271.68 166.5  273 167.82  273 169.5  C 273 171.18  271.68 172.5  270 172.5  " fill-rule="nonzero" fill="#797979" stroke="none" />
</svg>