<?xml version="1.0" encoding="utf-8"?>
<svg version="1.1" xmlns:xlink="http://www.w3.org/1999/xlink" width="12px" height="12px" viewBox="178 163.5  12 12" xmlns="http://www.w3.org/2000/svg">
  <path d="M 184 163.5  C 187.36 163.5  190 166.14  190 169.5  C 190 172.86  187.36 175.5  184 175.5  C 180.64 175.5  178 172.86  178 169.5  C 178 166.14  180.64 163.5  184 163.5  Z " fill-rule="nonzero" fill="#ffffff" stroke="none" />
  <path d="M 184 164  C 187.08 164  189.5 166.42  189.5 169.5  C 189.5 172.58  187.08 175  184 175  C 180.92 175  178.5 172.58  178.5 169.5  C 178.5 166.42  180.92 164  184 164  Z " stroke-width="1" stroke="#797979" fill="none" />
  <path d="M 184 172.5  C 182.32 172.5  181 171.18  181 169.5  C 181 167.82  182.32 166.5  184 166.5  C 185.68 166.5  187 167.82  187 169.5  C 187 171.18  185.68 172.5  184 172.5  " fill-rule="nonzero" fill="#797979" stroke="none" />
</svg>